<?xml version="1.0" standalone="no"?>
<!DOCTYPE svg PUBLIC "-//W3C//DTD SVG 20010904//EN"
 "http://www.w3.org/TR/2001/REC-SVG-20010904/DTD/svg10.dtd">
<svg version="1.0" xmlns="http://www.w3.org/2000/svg"
 width="256.000000pt" height="256.000000pt" viewBox="0 0 256.000000 256.000000"
 preserveAspectRatio="xMidYMid meet">
<metadata>
Created by potrace 1.11, written by Peter Selinger 2001-2013
</metadata>
<g transform="translate(0.000000,256.000000) scale(0.100000,-0.100000)"
fill="#000000" stroke="none">
<path d="M726 2499 c-34 -40 -35 -95 -3 -135 29 -37 90 -92 137 -124 68 -47
90 -68 92 -91 3 -22 -2 -25 -62 -35 -36 -6 -69 -9 -73 -6 -13 6 -59 82 -93
154 -27 56 -42 73 -94 108 -34 23 -64 40 -67 37 -2 -3 -21 2 -41 10 -79 34
-209 38 -242 8 -11 -10 -20 -14 -20 -10 0 5 -7 0 -15 -11 -15 -20 -21 -144 -8
-158 4 -3 8 -12 9 -19 1 -7 8 -25 15 -42 7 -16 13 -33 14 -37 2 -5 3 -9 5 -10
2 -3 6 -18 14 -56 8 -39 18 -65 27 -76 38 -46 69 -90 69 -99 0 -6 3 -8 6 -5 3
3 17 -5 31 -18 14 -13 29 -21 34 -18 5 3 9 1 9 -4 0 -5 8 -9 18 -9 24 2 138
-59 145 -77 4 -9 1 -19 -6 -23 -10 -7 -152 -13 -362 -15 -89 -1 -238 13 -252
25 -10 7 -13 -169 -13 -877 l0 -886 435 0 435 0 15 24 c9 13 27 27 40 30 13 3
46 35 75 70 28 36 64 76 79 89 15 12 36 45 46 71 10 26 26 51 34 54 24 9 40
34 40 62 l0 25 -15 -27 c-8 -16 -19 -28 -24 -28 -6 0 -66 -56 -134 -125 -67
-69 -126 -125 -130 -125 -11 0 -6 9 25 44 17 20 28 40 24 46 -3 5 2 13 11 17
17 6 17 7 0 13 -12 4 0 14 46 37 66 33 118 73 118 90 0 16 36 44 45 36 4 -5 6
-1 3 7 -3 9 7 25 26 40 40 32 238 231 294 295 23 27 42 58 42 70 0 20 -57 65
-82 65 -6 0 -8 3 -5 7 4 3 0 14 -9 24 -14 16 -14 18 5 24 11 3 25 21 32 42 14
42 5 137 -16 169 -19 29 -170 104 -210 104 -17 0 -36 5 -42 11 -12 12 -208 30
-232 21 -8 -3 -12 -1 -8 5 10 16 -40 25 -62 11 -21 -13 -37 -7 -27 10 3 5 30
15 61 22 30 7 55 17 55 22 0 5 4 7 9 3 11 -6 26 31 23 55 -2 17 45 43 54 29
15 -25 45 -4 98 68 54 75 64 106 48 143 -7 16 -52 26 -52 11 0 -4 -11 -13 -25
-19 -20 -9 -25 -19 -25 -47 0 -38 -24 -95 -40 -95 -5 0 -7 -7 -4 -15 4 -10 0
-15 -10 -15 -13 0 -15 4 -6 19 5 11 14 21 18 23 5 1 12 16 16 32 7 27 6 28
-10 15 -9 -8 -20 -12 -23 -9 -3 3 -7 -10 -9 -27 -2 -21 -9 -33 -18 -33 -8 0
-14 2 -14 5 0 10 25 62 42 87 12 18 16 36 12 52 -3 15 -2 26 4 26 13 0 30 49
28 80 -1 14 -6 45 -10 70 -4 25 -8 83 -9 129 -2 55 -7 86 -15 89 -7 2 -9 9 -6
14 4 6 3 9 -2 5 -5 -3 -17 0 -27 7 -15 12 -16 16 -1 44 18 37 71 72 110 72 22
0 25 3 16 12 -15 15 -16 38 -1 38 5 0 7 -4 4 -10 -3 -6 4 -10 16 -10 21 0 21
1 5 19 -17 18 -16 20 4 26 12 4 24 4 27 1 4 -3 -2 -6 -13 -6 -17 -1 -17 -2 -2
-10 11 -7 26 -6 44 1 23 8 26 12 14 21 -12 8 -12 9 3 4 10 -3 21 -6 23 -6 3 0
3 -4 -1 -9 -3 -5 10 -22 30 -37 22 -17 35 -35 35 -50 0 -16 4 -22 14 -18 8 3
21 -4 29 -16 10 -15 23 -20 39 -18 23 4 23 4 -4 18 -16 7 -28 21 -28 30 0 21
34 53 46 43 5 -5 1 2 -9 14 -15 17 -16 25 -7 42 8 16 8 27 -1 42 -8 15 -8 19
0 15 6 -4 11 -1 11 8 0 15 -46 29 -92 28 -15 0 -30 4 -33 9 -4 5 -16 9 -27 9
-21 0 -21 0 -2 -22 19 -21 18 -21 -19 1 -36 22 -42 23 -78 11 -26 -9 -38 -18
-35 -27 4 -10 -2 -12 -22 -8 -26 5 -26 5 -3 -5 13 -6 21 -13 18 -16 -8 -8 -47
6 -47 17 0 5 -7 9 -15 9 -9 0 -56 20 -105 45 -86 43 -89 44 -78 20 10 -21 9
-29 -6 -43 -12 -12 -19 -14 -24 -6 -4 7 -16 13 -27 15 -12 3 -23 17 -30 41 -5
21 -16 43 -23 50 -6 6 -12 29 -12 50 0 47 -18 50 -54 7z m251 -201 c-3 -8 -6
-5 -6 6 -1 11 2 17 5 13 3 -3 4 -12 1 -19z m293 7 c14 -8 19 -14 12 -15 -7 0
-10 -4 -7 -10 16 -25 -21 -6 -44 23 -11 14 -11 17 0 17 8 -1 25 -7 39 -15z
m101 -118 c-8 -8 -11 -5 -11 9 0 27 14 41 18 19 2 -9 -1 -22 -7 -28z m-564
-856 c6 -9 8 -17 2 -19 -5 -2 -9 -12 -9 -23 0 -10 -5 -19 -11 -19 -5 0 -7 -4
-4 -10 3 -5 22 -10 40 -10 51 0 57 -41 16 -110 -5 -8 -15 -28 -22 -43 -7 -16
-27 -34 -44 -41 -17 -7 -38 -21 -48 -30 -32 -32 -20 10 14 48 l30 35 -17 61
c-9 33 -21 60 -25 60 -10 0 -2 70 12 108 7 19 14 22 31 16 13 -4 28 -14 35
-23z m251 -293 c14 -14 16 -58 3 -58 -5 0 -14 7 -21 15 -10 12 -16 13 -28 3
-13 -11 -15 -10 -9 5 10 27 -26 21 -58 -10 -23 -23 -26 -24 -17 -6 28 52 101
80 130 51z m228 -376 c-3 -5 9 -6 27 -4 29 5 31 3 18 -12 -16 -19 -21 -19 -56
-6 -27 10 -26 30 1 30 8 0 13 -4 10 -8z m-50 -49 c20 -16 19 -17 -48 -80 -38
-34 -74 -63 -79 -63 -11 0 -12 60 -1 76 4 6 23 14 43 18 21 4 43 14 50 23 11
13 11 15 1 9 -13 -8 -42 9 -42 25 0 15 55 10 76 -8z m-139 -350 c-9 -9 -19
-14 -23 -11 -10 10 6 28 24 28 15 0 15 -1 -1 -17z m-47 -47 c0 -3 -4 -8 -10
-11 -5 -3 -10 -1 -10 4 0 6 5 11 10 11 6 0 10 -2 10 -4z m-59 -69 c-10 -9 -11
-8 -5 6 3 10 9 15 12 12 3 -3 0 -11 -7 -18z m-41 -52 c-7 -9 -15 -13 -17 -11
-7 7 7 26 19 26 6 0 6 -6 -2 -15z"/>
<path d="M1547 2281 c3 -11 11 -22 19 -25 11 -4 12 -2 4 14 -14 27 -29 34 -23
11z"/>
<path d="M1470 2283 c0 -5 11 -16 25 -23 14 -7 25 -18 25 -24 0 -6 11 -21 25
-34 33 -32 75 -27 93 11 7 15 18 27 25 28 14 1 -22 17 -40 18 -7 1 -13 -5 -13
-13 0 -7 -7 -19 -15 -26 -12 -10 -15 -9 -15 4 0 9 -6 16 -12 15 -21 -3 -48 12
-48 27 0 8 -4 14 -9 14 -5 0 -16 3 -25 6 -9 3 -16 2 -16 -3z"/>
<path d="M1462 2198 c2 -6 10 -14 16 -16 7 -2 10 2 6 12 -7 18 -28 22 -22 4z"/>
<path d="M1567 2149 c7 -7 15 -10 18 -7 3 3 -2 9 -12 12 -14 6 -15 5 -6 -5z"/>
<path d="M1919 2133 c-93 -4 -97 -5 -101 -28 -3 -13 0 -29 6 -35 14 -14 -31
-50 -53 -42 -13 4 -12 1 3 -16 10 -12 19 -33 19 -47 0 -14 5 -25 13 -25 8 0
14 -7 14 -17 0 -11 10 -5 33 21 29 33 43 39 136 62 57 14 111 30 121 37 20 12
34 47 19 47 -5 0 -9 9 -9 20 0 12 -7 20 -17 20 -10 0 -34 2 -53 3 -19 2 -78 2
-131 0z"/>
<path d="M1747 2076 c-4 -10 0 -14 14 -13 10 1 18 6 16 11 -5 16 -24 18 -30 2z"/>
<path d="M1090 2045 c0 -8 4 -15 10 -15 5 0 7 7 4 15 -4 8 -8 15 -10 15 -2 0
-4 -7 -4 -15z"/>
<path d="M2240 1987 c-25 -6 -65 -24 -90 -40 -87 -58 -170 -107 -182 -107 -6
0 -19 6 -27 14 -17 15 -88 56 -97 56 -3 0 -2 -37 2 -82 l7 -83 -24 28 c-24 28
-25 28 -72 16 -33 -8 -55 -21 -69 -40 -11 -15 -31 -30 -44 -33 -13 -4 -37 -26
-54 -50 -24 -36 -33 -64 -46 -151 -8 -58 -13 -111 -11 -118 2 -7 0 -19 -4 -29
-14 -26 17 -88 51 -101 17 -6 31 -21 35 -35 3 -13 15 -33 26 -45 17 -18 21
-19 29 -7 9 15 9 16 23 -30 10 -33 64 122 92 263 9 46 49 79 93 76 20 -2 43
-7 51 -13 9 -7 17 -5 26 7 11 16 13 16 19 2 5 -15 21 -15 96 -2 3 0 28 -3 55
-8 28 -5 54 -8 58 -7 5 2 21 4 35 6 69 10 176 71 236 135 17 17 33 31 38 31 5
0 22 15 38 33 29 31 29 35 30 135 0 90 -2 104 -20 122 -36 36 -68 46 -174 55
-38 3 -71 7 -75 8 -3 2 -26 -1 -51 -6z"/>
<path d="M1406 1971 c-4 -6 -3 -11 2 -11 5 0 12 -9 15 -20 5 -20 30 -26 62
-14 14 6 11 10 -14 20 -17 7 -34 13 -38 13 -3 -1 -9 5 -13 11 -5 9 -9 9 -14 1z"/>
<path d="M1353 1892 c-16 -10 -24 -70 -10 -79 6 -3 13 -1 15 5 2 7 8 10 13 7
4 -3 11 6 15 20 3 14 11 25 18 25 6 0 2 7 -8 15 -22 17 -26 18 -43 7z"/>
<path d="M1485 1880 c-8 -13 5 -13 25 0 13 8 13 10 -2 10 -9 0 -20 -4 -23 -10z"/>
<path d="M1410 1840 c18 -12 30 -13 30 -2 0 4 -10 9 -22 9 -18 2 -20 0 -8 -7z"/>
<path d="M1410 1809 c0 -5 5 -7 10 -4 6 3 10 8 10 11 0 2 -4 4 -10 4 -5 0 -10
-5 -10 -11z"/>
<path d="M1340 1776 c0 -2 8 -10 18 -17 15 -13 16 -12 3 4 -13 16 -21 21 -21
13z"/>
<path d="M1270 1749 c0 -5 5 -7 10 -4 6 3 10 8 10 11 0 2 -4 4 -10 4 -5 0 -10
-5 -10 -11z"/>
<path d="M1320 1729 c0 -11 5 -17 10 -14 6 3 10 13 10 21 0 8 -4 14 -10 14 -5
0 -10 -9 -10 -21z"/>
<path d="M1186 1705 c-3 -8 -1 -15 4 -15 6 0 10 7 10 15 0 8 -2 15 -4 15 -2 0
-6 -7 -10 -15z"/>
<path d="M1094 1634 c-3 -10 -10 -30 -15 -43 -5 -13 -8 -25 -6 -28 3 -2 12 15
21 38 9 23 15 44 12 47 -3 3 -8 -4 -12 -14z"/>
</g>
</svg>
